<?xml version="1.0" encoding="iso-8859-1"?>
<!-- Generator: Adobe Illustrator 22.0.1, SVG Export Plug-In . SVG Version: 6.00 Build 0)  -->
<svg version="1.1" xmlns="http://www.w3.org/2000/svg" xmlns:xlink="http://www.w3.org/1999/xlink" x="0px" y="0px"
	 viewBox="0 0 1298.211 1339.212" style="enable-background:new 0 0 1298.211 1339.212;" xml:space="preserve">
<g id="Layer_2">
	<g>
		<g>
			<defs>
				<rect id="SVGID_1_" x="3.48" y="28.461" width="1291.251" height="1276.29"/>
			</defs>
			<clipPath id="SVGID_2_">
				<use xlink:href="#SVGID_1_"  style="overflow:visible;"/>
			</clipPath>
			<g style="clip-path:url(#SVGID_2_);">
				<defs>
					<rect id="SVGID_3_" x="3.48" y="28.461" width="1291.251" height="1276.29"/>
				</defs>
				<clipPath id="SVGID_4_">
					<use xlink:href="#SVGID_3_"  style="overflow:visible;"/>
				</clipPath>
				<g style="clip-path:url(#SVGID_4_);">
					<defs>
						<rect id="SVGID_5_" x="3.48" y="28.461" width="1291.251" height="1276.29"/>
					</defs>
					<clipPath id="SVGID_6_">
						<use xlink:href="#SVGID_5_"  style="overflow:visible;"/>
					</clipPath>
					<path style="clip-path:url(#SVGID_6_);fill:#FFFFFF;" d="M648.976,137.74c-142.542,0-276.554,55.509-377.346,156.301
						S115.327,528.843,115.327,671.387c0,142.542,55.511,276.552,156.303,377.346c100.792,100.792,234.804,156.302,377.346,156.302
						s276.554-55.509,377.346-156.302c100.792-100.794,156.302-234.804,156.302-377.346c0-142.544-55.509-276.554-156.302-377.346
						S791.518,137.74,648.976,137.74"/>
					<path style="clip-path:url(#SVGID_6_);fill:#0076CE;" d="M515.282,211.205v39.405l0.183,0.181l38.036-39.586h14.229
						l-39.13,40.409l42.414,46.702h-14.869l-40.68-45.06l-0.183,0.181v44.878h-11.402v-87.111H515.282z M592.998,287.917v-76.711
						h-11.402v87.111h45.972l4.196-10.4H592.998z M684.213,211.205l35.937,87.111h-12.315l-9.668-24.354h-39.221l-9.852,24.354
						H637.42l35.846-87.111H684.213z M662.868,264.019h31.287l-7.116-18.059c-1.399-3.467-2.798-7.024-4.195-10.673
						c-1.399-3.649-2.77-7.265-4.105-10.854h-0.273c-1.339,3.589-2.722,7.205-4.151,10.854s-2.905,7.329-4.424,11.037
						L662.868,264.019z M737.391,244.226c-4.258-1.763-6.386-5.35-6.386-10.764c0-4.438,1.55-7.737,4.653-9.896
						c3.103-2.158,7.084-3.238,11.948-3.238c3.708,0,7.859,0.654,12.452,1.961c4.591,1.307,8.861,3.36,12.815,6.157v-12.04
						c-3.467-2.25-7.478-3.908-12.04-4.974c-4.561-1.062-8.879-1.596-12.952-1.596c-4.258,0-8.12,0.548-11.585,1.642
						c-3.465,1.096-6.43,2.678-8.893,4.744c-2.463,2.068-4.364,4.605-5.701,7.616c-1.337,3.009-2.007,6.462-2.007,10.352
						c0,3.955,0.683,7.283,2.052,9.989c1.369,2.706,3.176,4.986,5.428,6.841c2.248,1.855,4.834,3.362,7.753,4.515
						c2.919,1.156,5.898,2.158,8.939,3.011c5.715,1.64,10.748,3.389,15.094,5.245c4.348,1.855,6.524,5.579,6.524,11.173
						c0,4.744-1.644,8.285-4.926,10.627c-3.284,2.341-7.512,3.511-12.679,3.511c-3.649,0-7.724-0.622-12.223-1.869
						c-4.501-1.245-8.728-3.238-12.679-5.974l6.203,15.05c3.039,1.094,6.157,1.915,9.348,2.463c3.194,0.546,6.249,0.821,9.168,0.821
						c4.378,0,8.361-0.564,11.95-1.688c3.587-1.126,6.659-2.784,9.212-4.972c2.555-2.188,4.515-4.834,5.884-7.937
						c1.369-3.101,2.05-6.657,2.05-10.671c0-4.135-0.715-7.6-2.142-10.4c-1.431-2.796-3.316-5.153-5.657-7.068
						c-2.339-1.917-5.031-3.465-8.07-4.653c-3.043-1.186-6.113-2.234-9.212-3.146C746.42,247.601,741.645,245.989,737.391,244.226"
						/>
					<path style="clip-path:url(#SVGID_6_);fill:#0076CE;" d="M783.374,218.497c3.445,0,5.998,2.521,5.998,5.932
						c0,3.413-2.553,5.932-5.998,5.932s-5.996-2.519-5.996-5.932C777.378,221.018,779.929,218.497,783.374,218.497 M783.374,229.341
						c2.903,0,4.912-2.104,4.912-4.912s-2.009-4.912-4.912-4.912c-2.901,0-4.912,2.104-4.912,4.912S780.472,229.341,783.374,229.341
						 M783.31,225.354h-0.829v2.298h-1.373v-6.444h2.393c1.339,0,2.457,0.735,2.457,2.074c0,0.925-0.544,1.562-1.307,1.849
						l1.528,2.521h-1.562L783.31,225.354z M783.374,224.27c0.733,0,1.182-0.287,1.182-0.925c0-0.606-0.448-0.925-1.182-0.925h-0.893
						v1.849H783.374z"/>
				</g>
				<g style="clip-path:url(#SVGID_4_);">
					<defs>
						<path id="SVGID_7_" d="M96.981,671.387c0,304.859,247.138,551.992,551.994,551.992c304.859,0,551.994-247.132,551.994-551.992
							c0-304.857-247.134-551.994-551.994-551.994C344.119,119.393,96.981,366.53,96.981,671.387"/>
					</defs>
					<clipPath id="SVGID_8_">
						<use xlink:href="#SVGID_7_"  style="overflow:visible;"/>
					</clipPath>
					<rect x="103.385" y="605.478" style="clip-path:url(#SVGID_8_);fill:#004876;" width="1091.87" height="326.842"/>
				</g>
				<g style="clip-path:url(#SVGID_4_);">
					<defs>
						<rect id="SVGID_9_" x="3.48" y="28.461" width="1291.251" height="1276.29"/>
					</defs>
					<clipPath id="SVGID_10_">
						<use xlink:href="#SVGID_9_"  style="overflow:visible;"/>
					</clipPath>
					<path style="clip-path:url(#SVGID_10_);fill:#0076CE;" d="M648.976,1241.727c-76.988,0-151.682-15.084-222.009-44.829
						c-67.917-28.726-128.91-69.846-181.283-122.219s-93.495-113.368-122.221-181.285c-29.746-70.327-44.829-145.019-44.829-222.007
						s15.082-151.682,44.829-222.007c28.726-67.917,69.848-128.912,122.221-181.285c52.373-52.373,113.366-93.493,181.283-122.219
						c70.327-29.746,145.021-44.829,222.009-44.829c76.986,0,151.682,15.082,222.009,44.829
						c67.917,28.726,128.908,69.846,181.281,122.219c52.373,52.373,93.495,113.368,122.221,181.285
						c29.746,70.325,44.828,145.019,44.828,222.007s-15.082,151.68-44.828,222.007c-28.726,67.917-69.849,128.912-122.221,181.285
						c-52.373,52.373-113.364,93.493-181.281,122.219C800.659,1226.643,725.962,1241.727,648.976,1241.727 M648.976,137.74
						c-142.542,0-276.554,55.509-377.346,156.301S115.327,528.843,115.327,671.387c0,142.542,55.511,276.552,156.303,377.346
						c100.792,100.792,234.804,156.302,377.346,156.302s276.554-55.509,377.346-156.302
						c100.792-100.794,156.302-234.804,156.302-377.346c0-142.544-55.509-276.554-156.302-377.346S791.518,137.74,648.976,137.74"/>
					<path style="clip-path:url(#SVGID_10_);fill:#0076CE;" d="M687.952,1020.677c12.572-15.023,18.549-24.681,18.549-35.104
						c0-12.878-9.045-19.777-21.923-19.777c-7.817,0-17.015,2.606-24.834,8.277v-14.716c5.671-3.68,14.871-7.054,25.6-7.054
						c19.624,0,35.72,11.193,35.72,32.502c0,15.176-8.277,27.901-21.307,43.539l-19.319,23.147l0.155,0.307h44.458v13.183h-73.586
						l-0.153-0.305L687.952,1020.677z"/>
					<path style="clip-path:url(#SVGID_10_);fill:#0076CE;" d="M750.8,1053.179c-7.203-9.812-10.575-24.99-10.575-43.693
						c0-18.703,3.372-33.879,10.575-43.691c6.594-8.893,16.252-13.492,27.291-13.492c11.037,0,20.694,4.599,27.287,13.492
						c7.203,9.812,10.579,24.988,10.579,43.691c0,18.703-3.376,33.881-10.579,43.693c-6.594,8.889-16.25,13.49-27.287,13.49
						C767.052,1066.669,757.394,1062.068,750.8,1053.179 M793.421,1045.667c6.436-8.277,7.971-22.844,7.971-36.181
						c0-13.339-1.534-27.901-7.971-36.179c-3.68-4.599-8.74-7.512-15.329-7.512c-6.594,0-11.653,2.913-15.331,7.512
						c-6.438,8.277-7.973,22.84-7.973,36.179c0,13.337,1.534,27.903,7.973,36.181c3.678,4.599,8.738,7.512,15.331,7.512
						C784.681,1053.179,789.74,1050.266,793.421,1045.667"/>
					<polygon style="clip-path:url(#SVGID_10_);fill:#0076CE;" points="859.643,971.927 834.195,981.739 834.195,967.788 
						874.208,952.303 874.208,1064.982 859.643,1064.982 					"/>
					<path style="clip-path:url(#SVGID_10_);fill:#0076CE;" d="M925.557,1006.42v-0.307c-10.424-4.292-16.097-12.263-16.097-23.456
						c0-17.324,13.644-30.354,34.188-30.354c20.542,0,34.186,13.03,34.186,30.354c0,11.193-5.673,19.163-16.097,23.456v0.307
						c12.111,4.139,19.163,14.411,19.163,27.443c0,18.856-14.718,32.807-37.253,32.807c-22.537,0-37.255-13.95-37.255-32.807
						C906.394,1020.831,913.446,1010.559,925.557,1006.42 M943.649,1053.792c12.723,0,22.84-8.126,22.84-20.237
						c0-12.111-10.27-20.542-22.84-20.542c-12.572,0-22.842,8.431-22.842,20.542
						C920.807,1045.666,930.924,1053.792,943.649,1053.792 M964.038,983.272c0-10.579-8.893-18.089-20.389-18.089
						c-11.5,0-20.391,7.51-20.391,18.089s9.198,18.089,20.391,18.089C954.839,1001.361,964.038,993.851,964.038,983.272"/>
					<path style="clip-path:url(#SVGID_10_);fill:#0076CE;" d="M359.938,427.877c-8.447,4.495-19.072,6.54-28.881,6.54
						c-31.741,0-53.676-21.933-53.676-50.677c0-28.61,21.935-50.952,53.676-50.952c9.945,0,19.618,2.315,27.383,6.129v21.935
						c-7.219-4.906-17.165-8.584-27.245-8.584c-19.074,0-32.153,13.351-32.153,31.197c0,17.575,12.671,31.47,32.97,31.47
						c10.216,0,19.753-3.541,27.927-9.126V427.877z"/>
					<path style="clip-path:url(#SVGID_10_);fill:#0076CE;" d="M405.855,334.285h20.981l40.052,98.634h-23.159l-7.903-20.708
						h-39.781l-8.038,20.708h-22.204L405.855,334.285z M402.72,395.182h26.568l-4.089-11.035
						c-2.861-7.765-6.402-17.573-8.991-25.068h-0.273c-2.588,7.494-6.131,17.302-9.264,25.612L402.72,395.182z"/>
					<polygon style="clip-path:url(#SVGID_10_);fill:#0076CE;" points="488.688,353.222 456.81,353.222 456.81,334.286 
						542.229,334.286 542.229,353.222 510.351,353.222 510.351,432.92 488.688,432.92 					"/>
					<polygon style="clip-path:url(#SVGID_10_);fill:#0076CE;" points="553.27,334.286 614.165,334.286 614.165,353.222 
						574.93,353.222 574.93,372.567 608.717,372.567 608.717,390.551 574.93,390.551 574.93,413.984 615.663,413.984 
						615.663,432.92 553.27,432.92 					"/>
					<path style="clip-path:url(#SVGID_10_);fill:#0076CE;" d="M712.802,426.244c-8.855,4.904-21.254,8.174-33.512,8.174
						c-31.607,0-53.813-21.389-53.813-50.406c0-29.154,22.479-51.223,53.949-51.223c12.123,0,22.615,3.27,30.244,7.492v21.796
						c-8.311-5.721-19.076-9.808-29.836-9.808c-19.891,0-32.697,14.032-32.697,31.605c0,17.167,12.261,31.607,32.562,31.607
						c4.495,0,8.853-0.817,12.125-2.18v-14.849h-17.169v-17.984h38.147V426.244z"/>
					<path style="clip-path:url(#SVGID_10_);fill:#0076CE;" d="M725.615,383.602c0-28.744,22.204-50.815,51.494-50.815
						c29.292,0,51.496,22.071,51.496,50.815c0,28.746-22.204,50.815-51.496,50.815C747.819,434.417,725.615,412.348,725.615,383.602
						 M806.945,383.602c0-17.438-12.807-31.197-29.836-31.197c-17.029,0-29.834,13.759-29.834,31.197
						c0,17.438,12.805,31.197,29.834,31.197C794.138,414.799,806.945,401.04,806.945,383.602"/>
					<path style="clip-path:url(#SVGID_10_);fill:#0076CE;" d="M842.234,334.285h30.926c11.717,0,22.752,1.634,30.653,6.54
						c7.221,4.495,11.852,11.852,11.852,23.159c0,12.671-6.948,23.025-20.026,27.249l27.792,41.686h-24.932l-24.93-38.962h-9.674
						v38.962h-21.66V334.285z M874.794,377.745c5.858,0,10.354-0.681,13.624-2.317c3.68-1.907,5.587-5.175,5.587-9.945
						c0-4.631-1.638-7.628-5.587-9.672c-3.405-1.769-8.718-2.588-16.212-2.588h-8.311v24.523H874.794z"/>
					<path style="clip-path:url(#SVGID_10_);fill:#0076CE;" d="M952.317,388.372l-38.01-54.086h25.203l11.99,17.848
						c3.814,5.585,8.036,12.123,11.852,18.119h0.273c3.814-5.996,7.763-12.127,11.85-18.257l11.852-17.711h24.388l-37.739,53.949
						v44.685h-21.66V388.372z"/>
					<polygon style="clip-path:url(#SVGID_10_);fill:#0076CE;" points="389.984,452.5 411.646,452.5 411.646,532.198 
						454.831,532.198 454.831,551.135 389.984,551.135 					"/>
					<polygon style="clip-path:url(#SVGID_10_);fill:#0076CE;" points="465.598,452.5 526.495,452.5 526.495,471.437 
						487.258,471.437 487.258,490.781 521.045,490.781 521.045,508.765 487.258,508.765 487.258,532.198 527.992,532.198 
						527.992,551.135 465.598,551.135 					"/>
					<path style="clip-path:url(#SVGID_10_);fill:#0076CE;" d="M573.499,452.5h20.979l40.054,98.632h-23.161l-7.903-20.708h-39.779
						l-8.038,20.708h-22.206L573.499,452.5z M570.365,513.398h26.566l-4.087-11.037c-2.861-7.763-6.404-17.573-8.991-25.066h-0.273
						c-2.589,7.492-6.131,17.302-9.266,25.612L570.365,513.398z"/>
					<path style="clip-path:url(#SVGID_10_);fill:#0076CE;" d="M643.935,452.5h27.656c17.573,0,31.197,2.861,41.415,9.947
						c12.123,8.445,18.936,22.342,18.936,39.233c0,15.531-5.858,28.746-16.35,37.328c-10.081,8.176-24.249,12.125-44.956,12.125
						h-26.702V452.5z M671.591,532.198c14.032,0,23.023-2.453,29.154-7.765c5.856-5.039,9.535-12.942,9.535-22.752
						c0-10.352-4.087-19.072-11.442-24.249c-6.948-4.904-16.35-5.996-27.383-5.996h-5.86v60.762H671.591z"/>
					<polygon style="clip-path:url(#SVGID_10_);fill:#0076CE;" points="745.161,452.5 806.059,452.5 806.059,471.437 
						766.823,471.437 766.823,490.781 800.609,490.781 800.609,508.765 766.823,508.765 766.823,532.198 807.557,532.198 
						807.557,551.135 745.161,551.135 					"/>
					<path style="clip-path:url(#SVGID_10_);fill:#0076CE;" d="M821.592,452.499h30.926c11.717,0,22.752,1.636,30.653,6.542
						c7.221,4.493,11.852,11.85,11.852,23.159c0,12.669-6.95,23.023-20.026,27.247l27.789,41.686h-24.93l-24.93-38.962h-9.674
						v38.962h-21.66V452.499z M854.152,495.959c5.856,0,10.354-0.681,13.624-2.317c3.678-1.907,5.585-5.175,5.585-9.943
						c0-4.633-1.636-7.63-5.585-9.672c-3.405-1.771-8.718-2.59-16.212-2.59h-8.311v24.523H854.152z"/>
				</g>
				<g style="clip-path:url(#SVGID_4_);">
					<defs>
						<path id="SVGID_11_" d="M110.158,669.394c0,296.48,240.345,536.824,536.824,536.824c296.48,0,536.824-240.343,536.824-536.824
							c0-296.478-240.343-536.826-536.824-536.826C350.504,132.569,110.158,372.916,110.158,669.394"/>
					</defs>
					<clipPath id="SVGID_12_">
						<use xlink:href="#SVGID_11_"  style="overflow:visible;"/>
					</clipPath>
					<path style="clip-path:url(#SVGID_12_);fill:#FFFFFF;" d="M1184.321,927.931c0.123-0.381,0.058-0.695-0.191-0.95
						c-0.51-1.769-1.203-3.29-2.088-4.561c-0.891-1.261-1.965-2.527-3.23-3.798c-0.51-0.249-0.891-0.628-1.14-1.14
						c-0.255-0.504-0.379-1.008-0.379-1.52c-0.255-2.278-0.57-4.493-0.95-6.649c-0.381-2.148-0.57-4.368-0.57-6.648
						c-0.255-0.251-0.321-0.57-0.189-0.951c0.123-0.381,0.06-0.819-0.189-1.329v-1.14v-1.142c-0.51-0.759-0.701-1.518-0.572-2.278
						c0.125-0.759,0.189-1.52,0.189-2.28c-0.255-2.025-0.51-4.049-0.759-6.082c-0.255-2.023-0.636-4.047-1.14-6.078
						c-0.255-1.52-0.57-3.099-0.951-4.75c-0.379-1.642-0.442-3.228-0.187-4.749c-0.255-0.761-0.321-1.52-0.191-2.282
						c0.126-0.757,0.058-1.516-0.191-2.278c-0.255-2.28-0.699-4.559-1.329-6.841c-0.634-2.278-1.71-4.557-3.23-6.837
						c-2.029-3.29-4.179-6.52-6.458-9.69c-2.281-3.164-4.691-6.392-7.219-9.688c-1.52-1.769-2.788-3.609-3.8-5.51
						c-1.014-1.899-1.14-3.989-0.379-6.269c0-0.249-0.066-0.504-0.189-0.759c-0.133-0.249-0.191-0.506-0.191-0.761
						c-0.255-1.768-0.761-3.419-1.52-4.938c-0.759-1.52-1.271-3.164-1.52-4.94c-0.253-1.52-0.634-2.909-1.14-4.179
						c-0.51-1.265-1.269-2.531-2.278-3.8c-0.761-1.01-1.331-2.09-1.712-3.23c-0.379-1.14-0.699-2.469-0.948-3.991
						c-0.255-3.541-1.016-7.028-2.28-10.447c-1.271-3.419-3.172-6.516-5.699-9.308c-0.255-0.249-0.446-0.57-0.57-0.951
						c-0.131-0.381-0.068-0.819,0.187-1.329c0.506-4.304,0.251-8.359-0.757-12.159c-1.016-3.798-3.419-7.09-7.221-9.878
						c-2.533-2.026-5.004-4.115-7.407-6.269c-2.411-2.15-4.75-4.37-7.03-6.649c-3.8-3.545-7.285-7.409-10.45-11.589
						c-3.17-4.179-6.398-8.168-9.688-11.97c-0.51-0.504-0.759-1.006-0.759-1.518c0-0.504,0.125-1.14,0.379-1.899
						c1.52-2.529,2.405-5.255,2.66-8.17c0.249-2.909-0.255-5.888-1.518-8.927c-1.271-3.041-2.471-6.08-3.611-9.12
						c-1.14-3.039-2.09-6.078-2.848-9.118c-0.512-1.769-1.271-3.288-2.282-4.559c-1.016-1.265-2.281-2.529-3.798-3.8
						c-5.83-4.049-11.021-8.674-15.58-13.869c-4.559-5.189-7.979-11.332-10.256-18.426c-0.257-0.761-0.446-1.389-0.57-1.901
						c-0.132-0.504,0.189-1.008,0.948-1.518c0.759-0.506,1.265-1.076,1.52-1.71c0.249-0.632,0.504-1.329,0.759-2.09
						c0.249-1.769,0.506-3.545,0.761-5.32c0.249-1.768,0.124-3.543-0.382-5.32c0-1.008-0.187-1.957-0.57-2.847
						c-0.379-0.885-0.823-1.71-1.329-2.471c-0.255-0.759-0.444-1.387-0.568-1.899c-0.131-0.504-0.191-1.14-0.191-1.901
						c0-1.518-0.066-3.039-0.189-4.557c-0.131-1.52-0.95-2.909-2.471-4.181c-1.269-0.759-2.411-1.52-3.417-2.28
						c-1.016-0.759-2.031-1.52-3.043-2.28c-2.029-1.52-4.177-2.849-6.458-3.989c-2.28-1.14-4.559-2.09-6.839-2.849
						c-1.773-0.249-3.419-0.438-4.94-0.57c-1.518-0.123-3.17-0.315-4.94-0.57c-3.039-0.504-6.143-1.265-9.308-2.28
						c-3.168-1.01-6.269-2.024-9.308-3.041c-1.016-0.249-2.032-0.438-3.041-0.57c-1.016-0.124-1.773-0.315-2.278-0.57h-0.57h-0.572
						h-1.518c-0.512,0-1.016-0.124-1.52-0.381c-1.016-0.249-2.032-0.379-3.041-0.379h-3.039h-1.331h-0.949h-0.95h-0.949
						c-1.016-0.249-1.967-0.379-2.849-0.379h-2.471c-3.8-0.251-7.472-0.381-11.019-0.381h-10.639c-4.053,0-8.044-0.06-11.966-0.191
						c-3.932-0.125-7.921-0.189-11.97-0.189c-3.296,0.255-6.781,0.381-10.447,0.381c-3.674,0-7.285,0.13-10.83,0.381
						c-3.549,0-6.968,0.189-10.258,0.568c-3.296,0.381-6.715,0.57-10.258,0.57c-2.03,0-3.866,0.321-5.51,0.951
						c-1.652,0.636-3.23,1.461-4.749,2.469c-1.271,0.761-2.282,1.652-3.041,2.66c-0.761,1.016-1.269,2.28-1.52,3.8
						c-0.255,0.759-0.51,1.52-0.759,2.28c-0.255,0.759-0.51,1.52-0.759,2.28c-0.512,1.014-0.891,2.222-1.14,3.609
						c-0.255,1.397,0,2.726,0.759,3.989c0.504,0.512,0.63,0.891,0.381,1.142c-0.257,0.255-0.636,0.51-1.14,0.759
						c-2.537,0.51-4.814,1.461-6.841,2.849c-2.031,1.395-3.798,3.105-5.318,5.129c-1.271,1.52-2.411,3.041-3.419,4.559
						c-1.014,1.52-2.031,3.17-3.039,4.94c-1.271,1.775-2.471,3.738-3.611,5.89c-1.14,2.154-2.469,4.119-3.989,5.888
						c-2.535,3.549-4.561,7.474-6.078,11.779c-1.52,4.31-2.792,8.614-3.802,12.918c-0.759,4.055-1.773,7.979-3.039,11.777
						c-1.271,3.8-3.039,7.476-5.32,11.019c-3.039,4.055-5.639,8.425-7.787,13.108c-2.154,4.693-4.244,9.565-6.271,14.628
						c-1.269,2.79-2.278,5.767-3.039,8.931c-0.759,3.168-1.014,6.398-0.759,9.688c0.249,3.294,0.57,6.524,0.951,9.688
						c0.379,3.17,0.949,6.398,1.71,9.688c1.008,3.041,1.52,6.08,1.52,9.12c0,3.039-0.257,5.954-0.761,8.738
						c-0.51,2.537-0.951,4.88-1.329,7.03c-0.381,2.154-0.953,4.368-1.71,6.647c-0.761,2.535-0.825,4.88-0.191,7.03
						c0.63,2.154,1.71,4.244,3.23,6.267c0.504,0.761,0.695,1.271,0.57,1.52c-0.131,0.257-0.446,0.636-0.95,1.14
						c-1.014,0.759-2.088,1.52-3.23,2.282c-1.14,0.759-2.343,1.52-3.609,2.278c-1.775,0.761-3.107,1.841-3.989,3.232
						c-0.891,1.395-1.584,2.724-2.09,3.989c-0.759,6.839-1.773,13.677-3.039,20.516c-1.271,6.839-2.409,13.678-3.419,20.516
						c-0.512,3.802-1.331,7.474-2.469,11.021c-1.142,3.549-2.222,7.217-3.23,11.017v7.217c0,0.257,0.058,0.381,0.189,0.381
						c0.125,0,0.191,0.132,0.191,0.381c0.504,1.773,1.008,3.485,1.518,5.129c0.506,1.65,1.263,3.228,2.28,4.75
						c1.008,1.773,1.961,3.549,2.849,5.318c0.885,1.773,1.58,3.674,2.09,5.699c1.01,2.28,2.09,4.368,3.23,6.269
						c1.14,1.901,2.718,3.487,4.75,4.748c2.022,1.52,4.047,2.66,6.076,3.419c2.026,0.761,4.181,1.271,6.462,1.52
						c0.249,0.257,0.628,0.381,1.138,0.381c0.506,0,0.885,0.132,1.14,0.381h1.14h1.14c0.506,0.255,1.076,0.379,1.712,0.379
						c0.63,0,1.198,0.131,1.71,0.381c2.278,0,4.491,0.132,6.647,0.381c2.15,0.255,4.37,0.51,6.649,0.759
						c0.504-0.249,0.885-0.315,1.142-0.189c0.247,0.132,0.628,0.189,1.138,0.189c3.039,0.255,6.014,0.512,8.929,0.761
						c2.909,0.255,6.014,0.379,9.31,0.379c2.784,0,5.253-0.44,7.409-1.329c2.148-0.885,4.493-1.835,7.028-2.851
						c0.761-0.249,1.58-0.628,2.471-1.14c0.885-0.504,1.71-1.138,2.469-1.899c1.52-1.52,2.852-3.164,3.989-4.938
						c1.14-1.769,2.09-3.668,2.849-5.701c0.504-0.504,0.821-1.074,0.95-1.708c0.126-0.632,0.189-1.202,0.189-1.712v-1.518
						c0-0.504,0.126-1.142,0.381-1.901v-3.23v-3.23c0-1.006-0.066-2.023-0.191-3.039c-0.13-1.008-0.064-2.025,0.191-3.039
						c0.249-0.759,0.381-1.455,0.381-2.09v-2.09v-0.948c0-0.381,0.123-0.819,0.379-1.331c0-1.518,0.191-2.909,0.57-4.179
						c0.381-1.263,0.57-2.531,0.57-3.8v-2.28v-1.899c0-1.77-0.255-3.356-0.761-4.75c-0.508-1.387-1.138-2.85-1.899-4.368
						c-0.759-1.01-1.518-2.09-2.278-3.23c-0.761-1.14-1.52-2.216-2.282-3.23c-3.039-4.304-5.954-8.483-8.738-12.54
						c-2.792-4.047-5.318-8.481-7.6-13.295c-0.51-0.761-1.014-1.646-1.52-2.66c-0.51-1.01-1.012-1.901-1.518-2.66
						c0-0.504-0.131-1.008-0.381-1.52c-0.255-0.504-0.51-1.008-0.759-1.52c-1.014-1.518-1.965-3.099-2.849-4.748
						c-0.893-1.646-1.839-3.099-2.849-4.37c-0.51-0.759-0.701-1.329-0.57-1.71c0.124-0.381,0.44-0.693,0.948-0.951
						c0.249-0.249,0.632-0.57,1.142-0.948c0.504-0.381,1.01-0.821,1.518-1.329c1.769-1.52,3.479-3.29,5.131-5.32
						c1.644-2.025,3.23-4.051,4.747-6.08c1.52-1.769,2.977-3.668,4.372-5.699c1.389-2.024,2.847-4.049,4.368-6.08
						c3.29-3.545,6.329-7.345,9.118-11.398c2.786-4.049,5.191-8.359,7.219-12.918c1.769-3.8,3.354-7.658,4.75-11.589
						c1.389-3.924,2.849-7.789,4.37-11.587v-0.759v-0.761c0.249-1.52,0.757-2.975,1.518-4.368c0.759-1.391,1.769-2.596,3.041-3.613
						c0.759-0.504,1.518-0.946,2.28-1.329c0.759-0.379,1.644-0.819,2.66-1.329c2.025-1.01,3.858-2.339,5.51-3.989
						c1.644-1.644,3.352-3.23,5.127-4.748c0.249-0.249,0.504-0.44,0.761-0.572c0.249-0.124,0.504-0.315,0.759-0.57
						c0.761-1.008,1.58-2.023,2.471-3.039c0.883-1.008,1.833-1.899,2.849-2.66c0.504-0.759,1.074-1.387,1.708-1.899
						c0.63-0.504,1.457-0.885,2.471-1.14c1.769,0,3.354-0.315,4.75-0.951c1.387-0.628,2.849-1.455,4.368-2.469
						c0.504-0.504,1.076-0.695,1.71-0.57c0.628,0.13,1.331,0.321,2.09,0.57c0.506,0.512,1.01,1.014,1.518,1.518
						c0.506,0.512,0.887,1.016,1.142,1.52c1.518,2.537,3.288,4.88,5.32,7.028c2.023,2.156,4.302,4.121,6.837,5.89
						c3.545,3.041,7.345,5.701,11.398,7.979c4.049,2.282,8.23,4.436,12.54,6.46c2.529,1.269,4.938,2.598,7.219,3.989
						c2.28,1.397,4.302,3.23,6.078,5.51c0.761,0.759,1.646,1.461,2.66,2.088c1.01,0.636,1.901,1.206,2.66,1.71
						c1.01,0.255,1.835,0.572,2.469,0.951c0.63,0.381,1.2,0.827,1.71,1.331c1.008,0.51,1.712,1.204,2.09,2.09
						c0.381,0.889,0.57,1.841,0.57,2.847c0,2.537,0.381,5.131,1.14,7.789c0.759,2.66,1.389,5.261,1.901,7.789
						c0.249,0.255,0.379,0.51,0.379,0.761v0.379c-0.255,0.512-0.321,1.016-0.191,1.52c0.125,0.51,0.191,0.891,0.191,1.14
						c0.249,0.759,0.381,1.329,0.381,1.708v1.331c0,1.775-0.189,3.485-0.572,5.131c-0.379,1.65-0.949,3.36-1.708,5.129
						c-0.255,0.759-0.57,1.459-0.951,2.09c-0.381,0.634-0.444,1.459-0.189,2.469v1.329v1.71c-0.51,0.51-0.701,1.08-0.57,1.71
						c0.124,0.636,0.315,1.206,0.57,1.71c0.504,1.271,1.01,2.409,1.518,3.419c0.506,1.016,1.01,2.032,1.52,3.039
						c0.761,1.016,1.52,1.967,2.282,2.849c0.759,0.891,1.767,1.586,3.037,2.09c0.506,0.512,1.14,1.016,1.901,1.52
						c0.759,0.51,1.389,1.14,1.899,1.901c0.249,0.51,0.504,1.012,0.761,1.518c0.247,0.51,0.381,1.142,0.381,1.901
						c0,1.773-0.255,3.417-0.761,4.938c-0.51,1.52-1.14,3.039-1.899,4.561c-1.271,2.03-2.345,4.242-3.23,6.647
						c-0.891,2.411-1.329,5.006-1.329,7.789v0.759v3.039v3.041v0.761v0.759c0.249,2.79,0.379,5.508,0.379,8.168
						c0,2.66-0.13,5.384-0.379,8.17c0.502,1.269,0.693,2.535,0.57,3.8c-0.132,1.269-0.321,2.535-0.57,3.798
						c-0.255,0.257-0.446,0.512-0.572,0.761c-0.13,0.255-0.187,0.51-0.187,0.759c0,2.031-0.191,4.055-0.572,6.08
						c-0.379,2.031-0.444,4.055-0.189,6.08c0,0.253,0.06,0.444,0.189,0.57c0.126,0.132,0.315,0.321,0.572,0.57v0.759
						c-0.257,0.257-0.383,0.51-0.383,0.759c0,1.271-0.13,2.537-0.379,3.802c-0.255,1.269-0.255,2.533,0,3.798v0.761
						c-0.759,1.518-1.329,3.103-1.712,4.748c-0.379,1.652-0.823,3.36-1.329,5.129c-0.253,1.271-0.57,2.66-0.949,4.179
						c-0.381,1.52-0.446,3.041-0.191,4.561c0.249,0.757,0.381,1.459,0.381,2.088c0,0.636-0.132,1.206-0.381,1.712
						c0,2.79,0.44,5.448,1.331,7.979c0.885,2.533,1.959,5.069,3.228,7.598c0.251,0.759,0.506,1.52,0.761,2.28
						c0.249,0.761,0.381,1.652,0.381,2.66v1.899v1.901c0,2.029,0.438,3.798,1.329,5.318c0.885,1.52,1.833,3.039,2.849,4.559
						c1.52,1.77,3.164,3.23,4.94,4.368c1.768,1.144,3.8,1.712,6.078,1.712c0.249,0,0.381,0.124,0.381,0.379
						c0.506,0.249,1.076,0.44,1.71,0.57c0.632,0.125,1.455,0.062,2.471-0.187c0.504-0.255,0.948-0.323,1.329-0.191
						c0.381,0.124,0.821,0.313,1.331,0.57h0.379c0.504,0.249,0.95,0.379,1.331,0.379c0.379,0,0.693,0.126,0.951,0.381
						c0.249,0,0.628,0.06,1.14,0.191c0.504,0.124,0.883,0.189,1.138,0.189c0.506,0,1.01,0.06,1.52,0.189
						c0.506,0.126,1.01,0.191,1.518,0.191c0.506,0,1.01,0.058,1.52,0.189c0.504,0.124,1.01,0.189,1.52,0.189h1.52
						c0.504,0,1.008,0.126,1.518,0.381c0.506,0,0.951,0.06,1.329,0.189c0.383,0.126,0.821,0.191,1.331,0.191h2.282
						c0.759,0,1.518,0.249,2.278,0.759c0.504,0,1.142,0.06,1.899,0.191c0.761,0.124,1.52,0.058,2.282-0.191h0.759
						c0.249,0.249,0.57,0.44,0.948,0.57c0.383,0.124,0.819,0.189,1.329,0.189h3.23c1.142,0,2.339,0.125,3.611,0.381
						c1.265,0.249,2.594,0.438,3.991,0.57c1.389,0.125,2.849,0.191,4.368,0.191c0.759-0.257,1.52-0.381,2.28-0.381
						c0.761,0,1.52,0.124,2.28,0.381h1.71h1.71c0.506-0.257,1.01-0.323,1.52-0.191c0.504,0.125,0.885,0.191,1.14,0.191h0.951h0.948
						c0.504-0.257,0.95-0.323,1.329-0.191c0.383,0.125,0.819,0.191,1.331,0.191c1.769,0,3.545-0.066,5.32-0.191
						c1.767-0.132,3.668-0.321,5.699-0.57h0.948h0.953h1.138h1.14h0.951h0.948h0.951h1.331h1.138h1.522h1.329h1.329h1.518h1.52
						c0.506,0,1.14,0.06,1.901,0.191c0.759,0.124,1.389,0.058,1.899-0.191h2.088c0.887,0,1.714,0.126,2.471,0.381
						c0.759,0,1.52,0.058,2.28,0.189c0.761,0.125,1.389-0.066,1.901-0.57c3.543,0.249,6.962,0.191,10.26-0.191
						c3.286-0.379,6.582-0.948,9.878-1.708c1.006-0.257,2.088-0.446,3.23-0.57c1.138-0.132,2.212-0.066,3.228,0.189
						c2.784,1.008,5.065,0.951,6.839-0.189c1.77-1.14,3.545-2.469,5.318-3.989c0.249-0.255,0.572-0.636,0.951-1.14
						c0.381-0.512,0.819-0.893,1.331-1.142c1.263-1.518,2.469-3.105,3.609-4.748c1.142-1.652,1.833-3.611,2.088-5.89
						c0.249-0.502,0.315-0.948,0.191-1.329c-0.13-0.381-0.064-0.693,0.191-0.949v-2.66v-3.039
						C1184.257,928.632,1184.191,928.31,1184.321,927.931"/>
					<g style="opacity:0.3;clip-path:url(#SVGID_12_);">
						<g>
							<defs>
								<rect id="SVGID_13_" x="786.26" y="579.458" width="397.98" height="377.474"/>
							</defs>
							<clipPath id="SVGID_14_">
								<use xlink:href="#SVGID_13_"  style="overflow:visible;"/>
							</clipPath>
							<path style="clip-path:url(#SVGID_14_);fill:#0076CE;" d="M1184.052,927.88c0.123-0.379,0.06-0.693-0.189-0.948
								c-0.51-1.768-1.205-3.288-2.088-4.557c-0.893-1.263-1.967-2.529-3.228-3.798c-0.51-0.249-0.893-0.628-1.142-1.14
								c-0.255-0.504-0.379-1.008-0.379-1.518c-0.255-2.278-0.568-4.491-0.95-6.645c-0.379-2.148-0.568-4.366-0.568-6.646
								c-0.255-0.249-0.321-0.57-0.191-0.948c0.125-0.381,0.06-0.819-0.189-1.329v-1.14v-1.14c-0.51-0.757-0.701-1.518-0.568-2.278
								c0.124-0.759,0.187-1.52,0.187-2.28c-0.255-2.023-0.51-4.045-0.759-6.078c-0.253-2.021-0.634-4.045-1.138-6.074
								c-0.255-1.52-0.57-3.097-0.948-4.746c-0.381-1.644-0.446-3.228-0.191-4.747c-0.255-0.761-0.319-1.52-0.189-2.282
								c0.126-0.757,0.058-1.516-0.191-2.276c-0.253-2.28-0.699-4.557-1.329-6.837c-0.634-2.278-1.708-4.557-3.228-6.835
								c-2.029-3.288-4.175-6.516-6.454-9.684c-2.28-3.162-4.689-6.39-7.215-9.682c-1.52-1.769-2.788-3.609-3.798-5.508
								c-1.014-1.899-1.14-3.987-0.381-6.265c0-0.249-0.064-0.504-0.189-0.761c-0.132-0.247-0.189-0.504-0.189-0.759
								c-0.255-1.767-0.761-3.417-1.52-4.936c-0.759-1.518-1.269-3.164-1.518-4.936c-0.253-1.52-0.636-2.909-1.14-4.179
								c-0.51-1.265-1.267-2.527-2.278-3.798c-0.759-1.008-1.329-2.088-1.71-3.226c-0.379-1.142-0.698-2.471-0.948-3.989
								c-0.255-3.543-1.014-7.026-2.278-10.441c-1.271-3.417-3.17-6.516-5.697-9.304c-0.255-0.249-0.446-0.572-0.57-0.951
								c-0.131-0.381-0.066-0.819,0.189-1.329c0.504-4.302,0.249-8.355-0.759-12.153c-1.014-3.796-3.415-7.084-7.215-9.874
								c-2.533-2.023-5.002-4.111-7.403-6.265c-2.409-2.148-4.748-4.368-7.028-6.646c-3.796-3.543-7.279-7.405-10.444-11.583
								c-3.168-4.177-6.394-8.164-9.682-11.962c-0.51-0.504-0.759-1.008-0.759-1.518c0-0.504,0.124-1.14,0.379-1.897
								c1.518-2.529,2.403-5.253,2.658-8.168c0.249-2.905-0.255-5.884-1.518-8.923c-1.269-3.039-2.469-6.076-3.607-9.114
								c-1.14-3.037-2.09-6.076-2.849-9.114c-0.51-1.769-1.269-3.286-2.278-4.555c-1.014-1.265-2.28-2.529-3.798-3.798
								c-5.827-4.047-11.013-8.67-15.569-13.863c-4.557-5.185-7.977-11.326-10.254-18.416c-0.257-0.761-0.444-1.389-0.57-1.899
								c-0.13-0.504,0.189-1.008,0.948-1.52c0.761-0.504,1.265-1.074,1.521-1.708c0.249-0.63,0.502-1.329,0.759-2.088
								c0.247-1.769,0.504-3.543,0.759-5.318c0.249-1.765,0.125-3.543-0.381-5.316c0-1.008-0.189-1.957-0.568-2.847
								c-0.382-0.885-0.825-1.708-1.329-2.467c-0.257-0.761-0.446-1.389-0.57-1.899c-0.131-0.504-0.191-1.14-0.191-1.899
								c0-1.52-0.064-3.039-0.189-4.557c-0.13-1.52-0.948-2.909-2.469-4.179c-1.269-0.759-2.409-1.518-3.417-2.278
								c-1.014-0.759-2.031-1.518-3.037-2.278c-2.031-1.52-4.179-2.85-6.458-3.989c-2.278-1.14-4.555-2.088-6.833-2.847
								c-1.775-0.249-3.419-0.438-4.94-0.57c-1.518-0.124-3.168-0.315-4.934-0.568c-3.039-0.506-6.141-1.265-9.304-2.28
								c-3.168-1.01-6.269-2.023-9.304-3.039c-1.016-0.249-2.032-0.438-3.041-0.568c-1.014-0.126-1.773-0.317-2.278-0.572h-0.568
								h-0.572h-1.518c-0.51,0-1.014-0.124-1.518-0.379c-1.016-0.249-2.031-0.379-3.039-0.379h-3.039h-1.329h-0.947h-0.951h-0.948
								c-1.016-0.249-1.965-0.381-2.849-0.381h-2.469c-3.798-0.249-7.468-0.381-11.013-0.381h-10.633
								c-4.051,0-8.04-0.058-11.962-0.189c-3.927-0.124-7.915-0.191-11.962-0.191c-3.294,0.257-6.777,0.381-10.443,0.381
								c-3.672,0-7.279,0.132-10.822,0.381c-3.549,0-6.966,0.189-10.254,0.57c-3.292,0.381-6.711,0.568-10.252,0.568
								c-2.031,0-3.864,0.321-5.508,0.951c-1.648,0.636-3.226,1.459-4.747,2.469c-1.271,0.759-2.28,1.648-3.037,2.658
								c-0.761,1.014-1.271,2.278-1.52,3.798c-0.255,0.759-0.51,1.518-0.759,2.278c-0.255,0.759-0.512,1.518-0.759,2.28
								c-0.512,1.012-0.891,2.218-1.14,3.607c-0.255,1.395,0,2.722,0.759,3.987c0.506,0.51,0.628,0.889,0.381,1.14
								c-0.257,0.255-0.636,0.51-1.14,0.759c-2.535,0.51-4.812,1.461-6.837,2.848c-2.029,1.395-3.796,3.104-5.316,5.127
								c-1.267,1.518-2.409,3.039-3.417,4.557c-1.012,1.52-2.029,3.168-3.037,4.936c-1.271,1.775-2.469,3.738-3.607,5.888
								c-1.142,2.154-2.471,4.117-3.987,5.886c-2.537,3.547-4.559,7.468-6.076,11.771c-1.52,4.308-2.792,8.61-3.8,12.912
								c-0.759,4.053-1.773,7.975-3.037,11.773c-1.271,3.796-3.039,7.471-5.318,11.013c-3.037,4.051-5.635,8.417-7.783,13.1
								c-2.154,4.689-4.242,9.561-6.267,14.62c-1.269,2.788-2.278,5.763-3.037,8.925c-0.759,3.166-1.014,6.394-0.759,9.684
								c0.249,3.292,0.568,6.52,0.951,9.682c0.377,3.168,0.947,6.396,1.708,9.684c1.008,3.039,1.518,6.076,1.518,9.114
								c0,3.037-0.255,5.952-0.759,8.734c-0.51,2.535-0.951,4.878-1.329,7.026c-0.381,2.154-0.951,4.366-1.71,6.646
								c-0.759,2.533-0.825,4.876-0.189,7.024c0.628,2.154,1.708,4.242,3.228,6.267c0.504,0.761,0.695,1.271,0.568,1.52
								c-0.129,0.255-0.444,0.634-0.951,1.138c-1.012,0.759-2.084,1.52-3.226,2.278c-1.14,0.761-2.343,1.52-3.607,2.28
								c-1.775,0.759-3.105,1.839-3.987,3.228c-0.891,1.393-1.584,2.722-2.088,3.987c-0.761,6.837-1.775,13.67-3.039,20.506
								c-1.269,6.837-2.409,13.67-3.417,20.506c-0.51,3.796-1.329,7.47-2.469,11.013c-1.14,3.549-2.22,7.215-3.228,11.013v7.213
								c0,0.257,0.06,0.381,0.189,0.381c0.125,0,0.191,0.132,0.191,0.381c0.504,1.773,1.008,3.483,1.516,5.125
								c0.506,1.65,1.265,3.228,2.282,4.749c1.008,1.773,1.957,3.547,2.848,5.316c0.883,1.773,1.578,3.674,2.088,5.695
								c1.008,2.28,2.088,4.37,3.228,6.267c1.14,1.899,2.716,3.483,4.748,4.747c2.021,1.518,4.045,2.66,6.074,3.417
								c2.025,0.759,4.179,1.269,6.456,1.518c0.251,0.257,0.628,0.383,1.14,0.383c0.504,0,0.883,0.13,1.138,0.379h1.14h1.14
								c0.506,0.255,1.074,0.379,1.71,0.379c0.63,0,1.198,0.132,1.71,0.381c2.276,0,4.489,0.13,6.643,0.379
								c2.148,0.255,4.368,0.51,6.646,0.759c0.504-0.249,0.885-0.313,1.142-0.189c0.247,0.131,0.626,0.189,1.138,0.189
								c3.037,0.255,6.012,0.512,8.925,0.761c2.905,0.255,6.01,0.379,9.302,0.379c2.784,0,5.251-0.438,7.405-1.329
								c2.148-0.883,4.493-1.833,7.026-2.846c0.761-0.251,1.58-0.632,2.469-1.142c0.885-0.504,1.708-1.14,2.469-1.899
								c1.518-1.518,2.847-3.162,3.987-4.936c1.138-1.769,2.088-3.667,2.847-5.697c0.504-0.504,0.819-1.074,0.949-1.708
								c0.126-0.63,0.191-1.2,0.191-1.708v-1.52c0-0.504,0.126-1.138,0.381-1.899v-3.228v-3.23c0-1.006-0.068-2.021-0.189-3.035
								c-0.133-1.01-0.066-2.025,0.189-3.039c0.249-0.759,0.379-1.455,0.379-2.088v-2.09v-0.948c0-0.379,0.124-0.819,0.379-1.329
								c0-1.518,0.191-2.909,0.572-4.177c0.379-1.263,0.57-2.529,0.57-3.8v-2.276v-1.899c0-1.769-0.257-3.354-0.761-4.746
								c-0.51-1.389-1.138-2.849-1.897-4.368c-0.761-1.008-1.52-2.088-2.282-3.228c-0.759-1.14-1.518-2.214-2.276-3.228
								c-3.039-4.302-5.954-8.479-8.736-12.532c-2.79-4.047-5.316-8.479-7.596-13.291c-0.51-0.761-1.014-1.644-1.516-2.658
								c-0.512-1.01-1.016-1.899-1.52-2.658c0-0.506-0.132-1.01-0.381-1.518c-0.253-0.504-0.508-1.008-0.757-1.52
								c-1.016-1.52-1.965-3.099-2.85-4.746c-0.891-1.644-1.839-3.099-2.849-4.368c-0.51-0.759-0.697-1.327-0.57-1.71
								c0.128-0.379,0.442-0.691,0.951-0.948c0.251-0.247,0.63-0.568,1.14-0.948c0.504-0.379,1.01-0.819,1.52-1.329
								c1.766-1.52,3.477-3.286,5.125-5.318c1.644-2.021,3.228-4.045,4.747-6.076c1.518-1.767,2.973-3.664,4.368-5.695
								c1.389-2.025,2.848-4.045,4.366-6.078c3.288-3.541,6.327-7.339,9.116-11.392c2.782-4.047,5.185-8.355,7.214-12.91
								c1.769-3.798,3.352-7.656,4.748-11.583c1.387-3.922,2.845-7.785,4.366-11.581v-0.759v-0.761
								c0.249-1.52,0.759-2.973,1.52-4.366c0.759-1.389,1.766-2.594,3.037-3.609c0.759-0.504,1.518-0.949,2.28-1.329
								c0.759-0.379,1.642-0.819,2.658-1.329c2.023-1.008,3.856-2.337,5.506-3.987c1.644-1.644,3.352-3.228,5.127-4.748
								c0.249-0.249,0.504-0.436,0.757-0.568c0.251-0.124,0.506-0.315,0.761-0.57c0.759-1.008,1.576-2.023,2.469-3.037
								c0.885-1.01,1.833-1.899,2.847-2.658c0.504-0.761,1.074-1.389,1.71-1.899c0.628-0.504,1.453-0.885,2.467-1.14
								c1.769,0,3.354-0.315,4.748-0.949c1.389-0.63,2.847-1.455,4.366-2.469c0.504-0.504,1.074-0.693,1.71-0.572
								c0.628,0.132,1.329,0.323,2.088,0.572c0.504,0.508,1.008,1.014,1.518,1.518c0.504,0.51,0.885,1.014,1.14,1.518
								c1.518,2.535,3.288,4.878,5.316,7.026c2.025,2.154,4.302,4.119,6.835,5.886c3.543,3.039,7.341,5.697,11.394,7.975
								c4.045,2.28,8.224,4.434,12.532,6.456c2.527,1.269,4.936,2.598,7.215,3.987c2.278,1.395,4.3,3.228,6.076,5.506
								c0.759,0.759,1.644,1.461,2.658,2.088c1.01,0.634,1.899,1.206,2.658,1.712c1.01,0.253,1.833,0.568,2.469,0.947
								c0.63,0.383,1.198,0.825,1.71,1.331c1.006,0.508,1.708,1.204,2.086,2.088c0.381,0.889,0.57,1.839,0.57,2.848
								c0,2.535,0.381,5.127,1.14,7.785c0.759,2.658,1.389,5.259,1.899,7.785c0.249,0.255,0.379,0.51,0.379,0.759v0.379
								c-0.255,0.51-0.321,1.016-0.187,1.52c0.122,0.51,0.187,0.889,0.187,1.138c0.249,0.759,0.381,1.329,0.381,1.71v1.329
								c0,1.773-0.189,3.483-0.568,5.127c-0.383,1.65-0.95,3.36-1.71,5.125c-0.255,0.761-0.57,1.461-0.948,2.09
								c-0.383,0.634-0.446,1.461-0.191,2.467v1.329v1.71c-0.51,0.51-0.701,1.08-0.57,1.71c0.124,0.636,0.315,1.204,0.57,1.71
								c0.504,1.267,1.008,2.409,1.518,3.415c0.506,1.014,1.008,2.03,1.518,3.039c0.761,1.016,1.52,1.965,2.28,2.849
								c0.759,0.889,1.769,1.582,3.037,2.086c0.504,0.51,1.142,1.016,1.899,1.52c0.759,0.51,1.391,1.138,1.901,1.899
								c0.249,0.51,0.502,1.014,0.757,1.518c0.249,0.51,0.381,1.14,0.381,1.899c0,1.775-0.255,3.417-0.759,4.938
								c-0.512,1.516-1.138,3.037-1.899,4.557c-1.271,2.026-2.343,4.242-3.228,6.645c-0.891,2.409-1.329,5-1.329,7.783v0.761v3.037
								v3.039v0.757v0.761c0.251,2.79,0.381,5.506,0.381,8.164c0,2.658-0.13,5.382-0.381,8.166c0.506,1.267,0.693,2.533,0.57,3.796
								c-0.131,1.271-0.319,2.535-0.57,3.798c-0.255,0.255-0.444,0.51-0.568,0.759c-0.132,0.255-0.191,0.51-0.191,0.761
								c0,2.029-0.191,4.051-0.57,6.076c-0.381,2.029-0.444,4.053-0.189,6.076c0,0.255,0.058,0.444,0.189,0.57
								c0.123,0.13,0.315,0.321,0.57,0.57v0.759c-0.255,0.257-0.381,0.51-0.381,0.759c0,1.269-0.13,2.533-0.379,3.798
								c-0.255,1.269-0.255,2.533,0,3.798v0.759c-0.759,1.518-1.329,3.103-1.708,4.746c-0.383,1.65-0.825,3.358-1.331,5.127
								c-0.255,1.271-0.57,2.658-0.948,4.177c-0.379,1.518-0.446,3.039-0.191,4.557c0.249,0.759,0.381,1.459,0.381,2.09
								c0,0.634-0.132,1.204-0.381,1.708c0,2.788,0.44,5.446,1.329,7.975c0.887,2.533,1.959,5.067,3.228,7.594
								c0.249,0.759,0.504,1.52,0.759,2.28c0.249,0.759,0.381,1.65,0.381,2.658v1.897v1.899c0,2.031,0.438,3.8,1.329,5.316
								c0.885,1.52,1.835,3.039,2.848,4.557c1.52,1.769,3.162,3.228,4.938,4.368c1.769,1.14,3.798,1.71,6.076,1.71
								c0.249,0,0.381,0.126,0.381,0.381c0.504,0.249,1.072,0.436,1.71,0.568c0.628,0.126,1.453,0.06,2.467-0.189
								c0.506-0.255,0.949-0.321,1.329-0.189c0.379,0.124,0.819,0.315,1.329,0.568h0.379c0.504,0.249,0.95,0.381,1.331,0.381
								c0.379,0,0.693,0.124,0.951,0.379c0.247,0,0.626,0.062,1.138,0.191c0.504,0.126,0.883,0.191,1.138,0.191
								c0.504,0,1.01,0.058,1.52,0.187c0.504,0.126,1.008,0.191,1.518,0.191c0.506,0,1.01,0.058,1.52,0.189
								c0.502,0.124,1.006,0.191,1.518,0.191h1.518c0.504,0,1.01,0.124,1.52,0.379c0.504,0,0.947,0.058,1.329,0.189
								c0.379,0.126,0.819,0.189,1.329,0.189h2.277c0.759,0,1.52,0.249,2.28,0.759c0.504,0,1.138,0.062,1.899,0.191
								c0.759,0.126,1.518,0.06,2.276-0.191h0.759c0.251,0.251,0.57,0.44,0.951,0.57c0.38,0.126,0.819,0.189,1.329,0.189h3.228
								c1.14,0,2.339,0.128,3.609,0.383c1.263,0.249,2.592,0.436,3.987,0.568c1.389,0.126,2.847,0.189,4.368,0.189
								c0.759-0.253,1.518-0.379,2.276-0.379c0.761,0,1.52,0.125,2.28,0.379h1.708h1.71c0.506-0.253,1.01-0.321,1.52-0.189
								c0.502,0.126,0.885,0.189,1.138,0.189h0.948h0.951c0.506-0.253,0.95-0.321,1.329-0.189c0.381,0.126,0.819,0.189,1.331,0.189
								c1.767,0,3.541-0.064,5.316-0.189c1.767-0.131,3.667-0.319,5.695-0.568h0.95h0.948h1.14h1.138h0.951h0.948h0.951h1.329h1.14
								h1.518h1.329h1.329h1.519h1.518c0.506,0,1.14,0.06,1.899,0.189c0.759,0.124,1.389,0.06,1.899-0.189h2.088
								c0.887,0,1.712,0.124,2.469,0.379c0.759,0,1.52,0.058,2.28,0.189c0.759,0.126,1.387-0.064,1.899-0.568
								c3.541,0.249,6.958,0.189,10.254-0.191c3.286-0.381,6.578-0.95,9.872-1.71c1.01-0.253,2.09-0.444,3.228-0.568
								c1.14-0.132,2.212-0.066,3.228,0.189c2.782,1.008,5.061,0.951,6.837-0.189c1.766-1.14,3.541-2.469,5.316-3.989
								c0.249-0.255,0.57-0.634,0.947-1.138c0.383-0.512,0.819-0.889,1.331-1.14c1.263-1.518,2.467-3.105,3.609-4.747
								c1.138-1.65,1.833-3.609,2.088-5.886c0.249-0.504,0.313-0.951,0.189-1.329c-0.132-0.381-0.066-0.695,0.189-0.95v-2.658
								v-3.037C1183.986,928.581,1183.92,928.26,1184.052,927.88 M875.123,598.361c0.249-0.63,0.504-1.331,0.759-2.09
								c0.249-0.504,0.628-0.63,1.14-0.381c0.504,0.255,0.885,0.381,1.138,0.381c2.025,1.271,4.113,2.028,6.267,2.28
								c2.148,0.253,4.366,0.379,6.645,0.379c0.504,0.51,1.074,0.759,1.708,0.759c0.63,0,1.2,0.257,1.712,0.761
								c-2.28,1.014-4.557,1.773-6.837,2.278c-2.278,0.51-4.557,0.759-6.837,0.759c-1.012,0-1.899-0.313-2.658-0.948
								c-0.757-0.63-1.516-1.329-2.278-2.088C875.123,599.688,874.868,598.995,875.123,598.361 M949.744,678.868
								c-1.14,2.409-2.469,4.745-3.987,7.024c-0.51,0.761-1.14,1.52-1.899,2.278c-0.759,0.761-1.65,1.52-2.658,2.28
								c-1.014,1.016-2.218,1.775-3.607,2.28c-1.395,0.51-2.848,0.889-4.368,1.138c-1.773,0.255-3.358,0.948-4.748,2.09
								c-1.393,1.138-2.722,2.469-3.985,3.987c-1.269,1.012-2.409,2.218-3.417,3.607c-1.014,1.395-2.154,2.722-3.417,3.987
								c-1.775,2.031-3.798,3.738-6.078,5.125c-2.28,1.397-4.557,2.6-6.835,3.609c-0.761,0.51-1.459,1.14-2.09,1.899
								c-0.634,0.761-1.204,1.52-1.708,2.28c-1.52,4.053-2.979,8.04-4.366,11.962c-1.397,3.927-2.849,7.915-4.368,11.962
								c-2.278,5.316-4.878,10.443-7.785,15.379c-2.913,4.938-6.396,9.435-10.443,13.482c-2.278,2.788-4.432,5.637-6.454,8.544
								c-2.03,2.913-4.179,5.763-6.458,8.543c-1.267,1.775-2.722,3.485-4.366,5.127c-1.65,1.65-3.483,3.228-5.506,4.748
								c-0.512,0.255-1.082,0.51-1.71,0.759c-0.636,0.255-1.461,0-2.467-0.759c-0.512-0.249-1.142-0.504-1.901-0.761
								c-0.757-0.249-1.393-0.379-1.899-0.379c-0.51,0.255-0.889,0.446-1.138,0.57c-0.257,0.13-0.379,0.444-0.379,0.948
								c0,0.257,0.122,0.51,0.379,0.759c0.249,0.255,0.504,0.381,0.759,0.381c2.782,0.255,4.998,1.269,6.646,3.037
								c1.644,1.776,3.097,3.674,4.366,5.699c1.769,2.531,3.29,5.191,4.557,7.975c1.263,2.788,2.529,5.446,3.8,7.975
								c1.767,3.549,3.732,7.024,5.886,10.443c2.146,3.417,4.491,6.645,7.024,9.682c1.265,1.775,2.529,3.547,3.796,5.316
								c1.265,1.775,2.403,3.547,3.417,5.316c1.265,1.775,2.025,3.609,2.282,5.508c0.247,1.897,0.247,3.862,0,5.886
								c-0.761,3.796-1.271,7.783-1.52,11.962c-0.255,4.177-0.379,8.295-0.379,12.34c0,1.52-0.132,3.105-0.383,4.748
								c-0.253,1.648-0.634,3.228-1.138,4.747c-0.51,1.773-1.269,3.292-2.28,4.557c-1.012,1.269-2.276,2.278-3.796,3.037
								c-2.029,1.518-4.244,2.79-6.645,3.8c-2.409,1.012-5.004,1.771-7.785,2.276c-1.775,0-2.979-0.124-3.609-0.379
								c-0.634-0.249-1.459-1.14-2.467-2.658c-1.016-2.025-1.899-3.922-2.658-5.697c-0.759-1.768-1.775-3.541-3.039-5.316
								c-1.269-1.767-2.598-3.228-3.987-4.366c-1.395-1.14-3.105-1.957-5.127-2.469c-1.773-0.759-3.228-1.71-4.366-2.848
								c-1.14-1.14-2.09-2.718-2.849-4.748c-0.759-3.037-1.518-6.135-2.278-9.304c-0.759-3.162-1.773-6.135-3.039-8.923
								c-0.508-1.008-1.014-1.71-1.518-2.09c-0.51-0.381-1.14-0.693-1.897-0.951c-2.28-0.759-3.487-1.327-3.609-1.708
								c-0.132-0.379,0.438-1.578,1.708-3.607c1.008-1.008,1.578-2.214,1.71-3.607c0.124-1.389-0.191-2.849-0.95-4.368
								c-0.255-0.759-0.444-1.518-0.568-2.28c-0.132-0.759-0.191-1.387-0.191-1.897c0.249-3.545,0.06-7.026-0.57-10.445
								c-0.634-3.415-1.08-6.893-1.329-10.444c-0.51-2.276-0.891-4.615-1.138-7.024c-0.257-2.403-0.512-4.87-0.761-7.405
								c0-2.278,0.128-4.491,0.383-6.645c0.249-2.148,0.502-4.368,0.757-6.646c0.249-0.249,0.504-0.63,0.759-1.14
								c0.249-0.504,0.381-1.008,0.381-1.518c1.01-2.023,2.278-3.164,3.796-3.419c1.52-0.249,3.039,0.51,4.559,2.28
								c0.504,0.51,1.008,0.889,1.518,1.14c0.504,0.255,1.01,0.379,1.518,0.379h0.759c0.249,0,0.504-0.124,0.759-0.379
								c0.249-0.504,0.315-0.819,0.191-0.948c-0.132-0.126-0.446-0.317-0.951-0.572c-0.759-0.502-1.393-1.138-1.899-1.899
								c-0.51-0.757-1.269-1.389-2.278-1.899c-0.759-0.504-1.518-0.817-2.28-0.948c-0.759-0.124-1.648-0.06-2.658,0.189
								c-1.014,0.255-1.963,0.51-2.847,0.759c-0.891,0.255-1.965-0.249-3.228-1.516c-1.267-1.265-2.341-2.658-3.228-4.179
								c-0.889-1.52-1.08-3.288-0.568-5.316c0.759-3.288,1.455-6.645,2.088-10.063c0.628-3.419,1.198-6.771,1.708-10.065v-1.138
								v-1.52c0-0.249,0.06-0.57,0.191-0.948c0.124-0.381,0.313-0.695,0.568-0.949c0.504,0,0.885,0.13,1.14,0.379
								c0.249,0.257,0.504,0.51,0.759,0.759c0.504,0.51,1.008,1.08,1.52,1.71c0.504,0.634,1.138,1.08,1.897,1.329
								c1.265,1.014,2.658,1.395,4.179,1.138c1.518-0.247,2.907-1.008,4.177-2.278c3.039-3.037,5.565-6.39,7.596-10.063
								c2.024-3.669,3.286-7.785,3.796-12.342c0.506-3.039,1.2-6.076,2.09-9.114c0.883-3.037,2.212-5.944,3.987-8.736
								c1.008-1.766,2.403-3.226,4.177-4.366c1.767-1.138,3.668-2.088,5.695-2.848c2.786-0.759,5.444-1.767,7.977-3.039
								c2.529-1.263,4.936-2.658,7.215-4.177c2.025-1.01,3.475-2.527,4.368-4.557c0.883-2.025,1.708-3.922,2.467-5.695
								c1.265-2.784,2.469-5.565,3.607-8.357c1.142-2.78,2.214-5.565,3.23-8.353c0.502-1.263,1.198-2.337,2.086-3.226
								c0.887-0.887,1.833-1.712,2.849-2.469c1.52-0.759,2.907-1.578,4.179-2.469c1.263-0.885,2.527-1.833,3.796-2.847
								c3.543-2.784,6.201-6.078,7.975-9.874c1.769-3.798,2.529-8.734,2.28-14.811c0-2.784,0.249-6.135,0.757-10.063
								c0.506-3.924,1.142-7.911,1.901-11.964c0.249-0.759,0.381-1.576,0.381-2.467v-2.469V614.5c0-0.249,0.122-0.381,0.377-0.381
								c0.249,0,0.632,0.255,1.142,0.759c1.261,1.269,2.212,2.658,2.847,4.179c0.63,1.518,1.198,2.913,1.71,4.177
								c1.263,4.308,2.907,8.355,4.936,12.153c2.023,3.796,4.302,7.468,6.835,11.011c1.769,2.79,3.798,5.448,6.078,7.977
								c2.276,2.533,4.681,4.936,7.213,7.213c1.52,1.014,2.658,2.28,3.419,3.798c0.759,1.52,1.389,3.168,1.899,4.936
								C951.199,673.616,950.884,676.463,949.744,678.868 M1052.467,935.199c-0.255,0.891-0.889,1.584-1.899,2.09
								c-1.518,0.504-2.977,0.759-4.366,0.759c-1.397,0-2.849-0.131-4.368-0.381c-1.773-0.502-3.549-1.006-5.316-1.518
								c-1.773-0.504-3.549-1.14-5.316-1.897c-0.512-0.249-0.949-0.504-1.331-0.761c-0.377-0.249-0.699-0.63-0.947-1.14
								c2.527-0.249,5.059-0.57,7.594-0.948c2.529-0.381,5.059-0.695,7.596-0.951c1.261-0.249,2.527-0.124,3.796,0.381
								c1.263,0.51,2.28,1.138,3.039,1.899C1052.212,933.491,1052.716,934.316,1052.467,935.199 M1177.595,938.618
								c-1.138,1.897-2.724,3.607-4.747,5.125c-0.512,0.761-1.082,1.455-1.71,2.09c-0.636,0.63-1.329,1.2-2.088,1.71
								c-0.759,0.502-1.52,0.883-2.28,1.138c-0.757,0.249-1.65,0.249-2.658,0c-1.771-0.51-3.483-0.636-5.127-0.381
								c-1.648,0.249-3.358,0.504-5.125,0.759c-4.053,0.761-8.23,1.265-12.532,1.52c-4.308,0.249-8.61,0.249-12.912,0
								c-4.308-0.255-8.608-0.381-12.91-0.381c-3.943,0-7.879,0.221-11.818,0.648c-0.305,0.183-0.61,0.359-0.917,0.542
								c0.086,0.255,0.096,0.432,0.012,0.52c-0.13,0.124-0.319,0.06-0.568-0.191c0.185-0.11,0.371-0.217,0.556-0.329
								c-0.04-0.126-0.096-0.263-0.179-0.43c0.367-0.042,0.733-0.074,1.096-0.112c3.306-1.971,6.614-3.904,9.919-5.775
								c3.798-2.154,7.843-3.738,12.151-4.746c1.518-0.255,2.849-0.757,3.987-1.518c1.14-0.759,2.339-1.518,3.609-2.28
								c0.249,0,0.44-0.124,0.57-0.379c0.124-0.249,0.313-0.504,0.57-0.759c1.008-2.529,1.71-4.997,2.088-7.405
								c0.379-2.405,0.313-4.998-0.191-7.785c-0.51-1.518-1.269-2.973-2.278-4.37c-1.014-1.387-1.897-2.716-2.658-3.985
								c-1.775-2.782-3.738-5.44-5.886-7.975c-2.154-2.529-4.623-4.683-7.405-6.456c-1.518-1.008-3.228-2.09-5.127-3.228
								c-1.901-1.138-3.609-2.212-5.127-3.228c-1.269-0.759-2.467-1.453-3.607-2.088c-1.14-0.628-2.088-1.578-2.849-2.85
								c-0.51-1.006-0.759-1.708-0.759-2.086c0-0.381,0.504-0.693,1.52-0.951c2.278-0.504,4.555-0.883,6.835-1.138
								c2.278-0.251,4.557-0.759,6.835-1.52c1.008-0.249,2.088-0.57,3.228-0.949c1.14-0.381,2.214-0.951,3.228-1.71
								c1.263-0.759,1.899-1.708,1.899-2.849c0-1.138-0.636-2.335-1.899-3.605c-0.253-0.249-0.57-0.57-0.951-0.951
								c-0.379-0.379-0.699-0.693-0.948-0.948c-0.759-1.769-1.774-2.973-3.037-3.609c-1.271-0.628-2.658-1.074-4.179-1.329
								c-2.278-0.504-4.687-0.819-7.215-0.948c-2.533-0.126-4.936-0.317-7.215-0.572c-1.518-0.249-3.103-0.502-4.746-0.757
								c-1.65-0.249-3.228-0.63-4.746-1.14c-1.269-0.249-2.278-0.759-3.039-1.518c-0.759-0.761-1.393-1.646-1.897-2.658
								c-0.257-0.504-0.321-0.95-0.191-1.329c0.125-0.381,0.438-0.57,0.95-0.57h6.835h6.456c2.023,0,4.047-0.06,6.076-0.189
								c2.023-0.128,4.177-0.06,6.456,0.189c0.249,0,0.63-0.06,1.138-0.189c0.506-0.128,0.63-0.44,0.381-0.951
								c0-0.504-0.189-0.885-0.57-1.14c-0.379-0.249-0.825-0.379-1.329-0.379c-3.037,0-6.076-0.06-9.114-0.189
								c-3.037-0.126-6.076-0.06-9.115,0.189c-1.014,0.253-1.965,0.253-2.848,0c-0.889-0.249-1.963-0.381-3.228-0.381
								c1.769-3.286,1.957-6.327,0.57-9.112c-1.393-2.786-2.979-5.568-4.748-8.355c-2.531-3.8-5-7.596-7.403-11.392
								c-2.407-3.8-4.623-7.847-6.646-12.153c-1.52-3.286-2.726-6.705-3.609-10.254c-0.889-3.541-1.329-7.084-1.329-10.631v-7.596
								v-7.596c-0.255-4.804-1.016-9.429-2.28-13.859c-1.267-4.428-3.415-8.672-6.454-12.723c-1.518-2.529-3.228-4.806-5.127-6.837
								c-1.897-2.023-4.117-3.796-6.646-5.316c-1.52-0.759-3.105-1.329-4.746-1.708c-1.65-0.381-3.228-0.819-4.749-1.329
								c-4.306-1.52-8.23-3.543-11.771-6.076c-3.549-2.531-6.711-5.82-9.495-9.874c-1.014-1.769-1.837-3.668-2.469-5.697
								c-0.634-2.023-1.203-4.177-1.708-6.456c-1.014-3.541-2.218-7.024-3.609-10.443c-1.393-3.417-2.845-6.769-4.366-10.063
								c-1.271-3.037-2.343-6.201-3.228-9.493c-0.891-3.288-1.71-6.582-2.469-9.874c-0.51-3.288-1.204-6.582-2.086-9.876
								c-0.893-3.286-1.967-6.454-3.23-9.493c-0.759-1.518-1.65-2.718-2.658-3.607c-1.014-0.885-2.278-1.329-3.798-1.329
								c-1.014,0-1.899-0.249-2.658-0.761c-0.759-0.504-1.518-1.263-2.278-2.278c-1.518-2.527-3.104-4.996-4.746-7.405
								c-1.65-2.405-3.36-4.617-5.127-6.645c-1.014-1.265-2.22-2.529-3.607-3.798c-1.395-1.265-3.105-1.899-5.127-1.899
								c-0.759,0-1.52,0.066-2.28,0.189c-0.759,0.132-1.65,0.321-2.658,0.57c-0.512,0.255-1.08,0.255-1.708,0
								c-0.636-0.249-1.08-0.628-1.329-1.14c-0.51-0.504-0.891-0.948-1.14-1.327c-0.255-0.381-0.636-0.819-1.14-1.331
								c-0.51-1.008-1.14-1.897-1.899-2.656c-0.759-0.761-1.773-1.01-3.037-0.761c-1.271,0.255-2.088,0.891-2.469,1.899
								c-0.381,1.014-0.701,1.899-0.948,2.658c-0.257,0.255-0.381,0.57-0.381,0.951c0,0.379-0.255,0.699-0.759,0.948
								c-0.255-0.504-0.446-1.008-0.57-1.52c-0.13-0.504-0.189-1.006-0.189-1.518c-1.271-4.804-2.658-9.553-4.179-14.239
								c-1.52-4.681-3.168-9.429-4.936-14.24c-0.51-1.769-0.636-2.909-0.381-3.419c0.249-0.504,1.387-0.759,3.417-0.759h11.013
								h11.392c1.265,0,2.594,0.066,3.987,0.189c1.389,0.132,2.849,0.189,4.368,0.189c3.798,0,7.596-0.058,11.392-0.189
								c3.798-0.123,7.596-0.189,11.392-0.189c4.047,0.255,8.034,0.889,11.964,1.899c3.922,1.014,7.909,2.154,11.962,3.417
								c2.024,0.51,3.922,1.014,5.695,1.518c1.769,0.512,3.545,0.761,5.316,0.761c3.8,0.255,7.464,1.014,11.015,2.278
								c3.541,1.269,6.833,3.168,9.874,5.697c0.759,0.508,1.453,1.012,2.088,1.518c0.628,0.51,1.329,1.014,2.086,1.518
								c0.759,0.51,1.329,1.204,1.712,2.088c0.379,0.891,0.568,1.71,0.568,2.469c0,1.014-0.319,1.708-0.951,2.088
								c-0.634,0.381-1.329,0.701-2.086,0.948c-2.28,0.257-4.559,0.381-6.837,0.381c-2.28,0-4.557-0.504-6.835-1.518
								c-1.518-0.504-3.039-0.885-4.557-1.14c-1.52-0.249-3.037-0.379-4.557-0.379h-1.52c-0.51,0-0.759,0.379-0.759,1.14
								c0,0.508,0.249,0.823,0.759,0.949c0.504,0.13,1.008,0.321,1.52,0.568c1.52,0,3.162,0.131,4.938,0.381
								c1.767,0.255,3.541,0.636,5.314,1.14c1.008,0.51,2.088,0.891,3.23,1.138c1.138,0.257,2.212,0.257,3.228,0h3.417
								c1.006,0,2.022-0.124,3.037-0.377c1.008-0.251,1.899-0.191,2.658,0.187c0.759,0.381,1.389,1.082,1.899,2.09
								c0.759,1.518,1.14,3.103,1.14,4.746v5.127c0,0.759-0.066,1.393-0.189,1.899c-0.131,0.508-0.321,1.138-0.57,1.897
								c-0.255,1.271-0.759,1.965-1.52,2.088c-0.759,0.132-1.518-0.187-2.28-0.948c-2.531-2.023-5.189-3.543-7.975-4.557
								c-2.788-1.008-5.695-1.389-8.732-1.14c-1.271,0-2.471-0.249-3.609-0.759c-1.14-0.504-2.218-1.263-3.228-2.278
								c-1.518-1.263-3.103-2.148-4.747-2.66c-1.65-0.504-3.36-0.757-5.127-0.757c-1.269,0-2.469-0.249-3.609-0.761
								c-1.138-0.504-2.343-1.008-3.605-1.518c-0.512,0-0.951-0.06-1.331-0.189c-0.381-0.125-0.699,0.066-0.95,0.568
								c-0.255,0.512-0.189,0.893,0.191,1.14c0.379,0.257,0.693,0.512,0.948,0.761c1.518,0.757,3.039,1.393,4.557,1.897
								c1.52,0.512,3.039,0.761,4.557,0.761c1.263,0,2.469,0.253,3.607,0.759c1.14,0.51,2.214,1.138,3.228,1.899
								c1.52,1.014,3.099,1.899,4.749,2.658c1.642,0.759,3.609,1.014,5.886,0.759c2.529-0.249,4.996,0.189,7.405,1.329
								c2.403,1.14,4.491,2.598,6.267,4.368c1.008,0.759,1.708,1.773,2.086,3.037c0.383,1.269,0.695,2.535,0.951,3.798
								c1.008,3.549,2.469,6.777,4.366,9.682c1.899,2.915,3.987,5.637,6.269,8.166c2.525,3.037,5.125,5.826,7.783,8.355
								c2.658,2.533,5.631,4.812,8.925,6.835c1.261,1.014,2.212,2.218,2.848,3.609c0.63,1.395,1.2,2.847,1.71,4.366
								c0.504,2.533,1.198,5.067,2.088,7.594c0.883,2.535,1.957,4.938,3.228,7.217c1.263,3.037,1.833,5.886,1.708,8.544
								c-0.13,2.658-0.948,5.255-2.467,7.783c-1.271,2.28-2.469,4.499-3.609,6.647c-1.14,2.154-2.09,4.497-2.847,7.024
								c-0.759,2.79-2.088,5.067-3.987,6.835c-1.899,1.777-3.987,3.419-6.267,4.938c-0.255,0.255-0.51,0.444-0.759,0.57
								c-0.255,0.132-0.51,0.321-0.761,0.57c-0.255,0-0.442,0.189-0.568,0.57c-0.13,0.379-0.189,0.699-0.189,0.948
								c0.249,0.51,0.57,0.759,0.948,0.759c0.381,0,0.695-0.124,0.951-0.379c0.759-0.251,1.518-0.63,2.278-1.14
								c0.759-0.504,1.389-1.008,1.899-1.518c0.759-0.761,1.327-1.389,1.71-1.899c0.379-0.504,0.948-1.008,1.708-1.52
								c0.504-0.504,1.008-1.008,1.52-1.518c0.504-0.504,1.008-1.14,1.518-1.899c0-0.504,0.123-0.759,0.379-0.759
								c0.761-0.506,1.265-1.198,1.52-2.088c0.249-0.885,0.504-1.833,0.759-2.847c0.249-1.263,0.57-2.403,0.948-3.417
								c0.381-1.01,0.819-2.024,1.329-3.039c0.504-0.504,0.885-0.759,1.138-0.759c0.251,0,0.63,0.255,1.142,0.759
								c1.768,2.278,3.607,4.557,5.504,6.835c1.901,2.28,3.732,4.557,5.508,6.835c2.28,2.79,4.615,5.448,7.026,7.977
								c2.403,2.533,4.996,5.067,7.785,7.594c1.767,1.518,3.543,2.979,5.316,4.368c1.767,1.395,3.417,2.848,4.936,4.366
								c1.769,1.52,3.039,3.228,3.798,5.127c0.759,1.901,1.263,3.864,1.518,5.888v1.708v1.329v1.52c0,0.51-0.255,0.889-0.759,1.138
								c-0.51,0.255-0.948,0.13-1.329-0.379c-0.379-0.504-0.699-0.887-0.948-1.142c-1.52-2.021-2.849-4.045-3.987-6.076
								c-1.138-2.023-2.22-4.177-3.228-6.454c0-0.506-0.189-1.01-0.568-1.52c-0.382-0.502-0.827-0.63-1.331-0.379
								c-0.51,0.253-0.701,0.634-0.57,1.138c0.125,0.51,0.189,1.014,0.189,1.52c1.52,3.547,3.354,6.901,5.508,10.063
								c2.148,3.168,4.615,6.016,7.407,8.544c1.516,1.271,2.716,2.913,3.605,4.936c0.887,2.031,1.712,3.93,2.469,5.697
								c0.504,1.773,0.95,3.483,1.329,5.127c0.381,1.648,0.57,3.36,0.57,5.125c0,0.761,0.06,1.397,0.189,1.899
								c0.125,0.51,0.315,1.016,0.57,1.52c1.52,1.773,2.718,3.672,3.609,5.697c0.883,2.029,1.453,4.053,1.708,6.074
								c0.249,0.761,0.504,1.584,0.759,2.471c0.249,0.889,0.632,1.584,1.142,2.086c0.249,0.759,0.436,1.461,0.568,2.088
								c0.125,0.638,0.189,1.206,0.189,1.71c-0.255,2.79,0.125,5.382,1.142,7.785c1.006,2.409,2.525,4.746,4.555,7.026
								c2.527,3.037,4.998,6.265,7.407,9.684c2.403,3.417,4.615,6.901,6.645,10.441c0.757,1.52,1.387,3.105,1.899,4.749
								c0.504,1.648,0.759,3.228,0.759,4.746c0,3.292,0.379,6.646,1.138,10.061c0.761,3.419,1.389,6.777,1.899,10.065
								c0.249,1.016,0.44,2.03,0.57,3.039c0.125,1.012,0.189,2.029,0.189,3.037c0,3.294,0.189,6.647,0.57,10.065
								c0.379,3.417,0.948,6.775,1.708,10.065v2.086c0,0.636,0.125,1.329,0.381,2.088c0.249,0.759,0.57,1.52,0.948,2.28
								c0.383,0.759,0.95,1.271,1.71,1.518c2.022,1.773,3.228,3.74,3.607,5.886c0.383,2.154,0.57,4.366,0.57,6.647
								C1179.303,934.382,1178.733,936.719,1177.595,938.618"/>
						</g>
					</g>
				</g>
			</g>
		</g>
	</g>
</g>
<g id="Layer_4">
	<g>
		<path style="fill:#FFFFFF;" d="M206.136,744.845c5.965,4.028,13.479,5.81,17.896,5.81c4.493,0,7.824-1.781,7.824-5.965
			c0-5.19-5.268-5.655-12.473-7.979c-7.747-2.556-14.719-6.353-14.719-16.113c0-10.458,7.901-16.966,19.677-16.966
			c5.5,0,12.24,1.395,17.121,4.028v12.163c-5.965-3.719-12.86-5.423-17.198-5.423c-4.184,0-7.205,1.55-7.205,5.268
			c0,4.958,5.19,5.346,11.931,7.592c8.444,2.789,15.261,6.74,15.261,16.656c0,10.923-8.29,17.508-20.375,17.508
			c-5.578,0-12.473-1.395-17.74-4.105V744.845z"/>
		<path style="fill:#FFFFFF;" d="M298.248,733.38c0,8.444-1.162,14.564-4.338,19.058c-3.951,5.655-11.155,8.986-20.142,8.986
			c-8.986,0-16.268-3.331-20.219-9.142c-3.021-4.493-4.183-10.613-4.183-18.592v-29.206h12.317v28.741
			c0,5.965,0.542,9.605,2.169,12.24c1.705,2.711,4.958,4.88,10.226,4.88c4.88,0,8.057-1.781,9.916-4.647
			c1.705-2.635,2.402-6.508,2.402-12.396v-28.818h11.853V733.38z"/>
		<path style="fill:#FFFFFF;" d="M306.385,704.484h17.585c6.663,0,12.938,0.93,17.431,3.719c4.106,2.556,6.74,6.739,6.74,13.169
			c0,7.205-3.951,13.093-11.388,15.494l15.804,23.705H338.38l-14.177-22.155h-5.5v22.155h-12.318V704.484z M324.901,729.197
			c3.331,0,5.888-0.388,7.747-1.317c2.091-1.085,3.176-2.943,3.176-5.655c0-2.634-0.929-4.338-3.176-5.5
			c-1.937-1.007-4.958-1.472-9.219-1.472h-4.726v13.944H324.901z"/>
		<path style="fill:#FFFFFF;" d="M402.682,756.775c-5.036,2.789-12.085,4.648-19.057,4.648c-17.973,0-30.6-12.162-30.6-28.663
			c0-16.578,12.782-29.129,30.677-29.129c6.895,0,12.86,1.859,17.198,4.261v12.396c-4.726-3.254-10.846-5.578-16.966-5.578
			c-11.31,0-18.592,7.979-18.592,17.973c0,9.762,6.972,17.973,18.515,17.973c2.557,0,5.035-0.465,6.895-1.239v-8.444h-9.761v-10.226
			h21.691V756.775z"/>
		<path style="fill:#FFFFFF;" d="M410.897,704.484h34.628v10.769h-22.311v11h19.212v10.226h-19.212v13.325h23.163v10.768h-35.481
			V704.484z"/>
		<path style="fill:#FFFFFF;" d="M452.81,704.484h17.585c6.662,0,12.937,0.93,17.43,3.719c4.106,2.556,6.74,6.739,6.74,13.169
			c0,7.205-3.951,13.093-11.388,15.494l15.804,23.705h-14.177l-14.177-22.155h-5.5v22.155H452.81V704.484z M471.325,729.197
			c3.331,0,5.887-0.388,7.747-1.317c2.092-1.085,3.176-2.943,3.176-5.655c0-2.634-0.93-4.338-3.176-5.5
			c-1.937-1.007-4.958-1.472-9.219-1.472h-4.726v13.944H471.325z"/>
		<path style="fill:#FFFFFF;" d="M513.858,735.239l-21.614-30.755h14.332l6.817,10.148c2.169,3.176,4.57,6.895,6.739,10.304h0.155
			c2.169-3.409,4.416-6.896,6.74-10.381l6.74-10.071h13.867l-21.459,30.678v25.409h-12.318V735.239z"/>
		<path style="fill:#FFFFFF;" d="M226.898,807.226c-2.789-3.951-5.578-8.057-8.212-12.008l-0.155,0.078
			c0.078,4.028,0.155,9.296,0.155,13.944v22.466h-11.853v-56.088h11.853l16.656,23.706l16.656-23.706h11.698v56.088h-12.318v-22.466
			c0-4.648,0.078-9.916,0.155-13.944l-0.155-0.078c-2.634,3.951-5.423,8.057-8.211,12.008l-8.134,11.543L226.898,807.226z"/>
		<path style="fill:#FFFFFF;" d="M290.271,775.619h11.93l22.776,56.088h-13.17l-4.493-11.775h-22.621l-4.571,11.775h-12.627
			L290.271,775.619z M288.489,810.248h15.106l-2.324-6.275c-1.627-4.415-3.641-9.993-5.113-14.254h-0.155
			c-1.472,4.261-3.486,9.839-5.268,14.564L288.489,810.248z"/>
		<path style="fill:#FFFFFF;" d="M351.164,809.086c-3.641-4.881-7.05-9.606-10.536-14.486l-0.155,0.077
			c0.078,5.346,0.155,10.769,0.155,16.191v20.839h-11.853v-56.088h11.621l16.811,22.621c3.641,4.881,7.05,9.606,10.536,14.486
			l0.155-0.077c-0.078-5.346-0.155-10.768-0.155-16.191v-20.839h11.853v56.088h-11.621L351.164,809.086z"/>
		<path style="fill:#FFFFFF;" d="M406.171,775.619h11.93l22.776,56.088h-13.17l-4.493-11.775h-22.621l-4.571,11.775h-12.627
			L406.171,775.619z M404.389,810.248h15.106l-2.324-6.275c-1.627-4.415-3.641-9.993-5.113-14.254h-0.155
			c-1.472,4.261-3.486,9.839-5.268,14.564L404.389,810.248z"/>
		<path style="fill:#FFFFFF;" d="M489.22,827.911c-5.036,2.789-12.085,4.647-19.057,4.647c-17.973,0-30.601-12.162-30.601-28.663
			c0-16.578,12.782-29.128,30.678-29.128c6.895,0,12.86,1.858,17.198,4.261v12.395c-4.726-3.254-10.846-5.577-16.966-5.577
			c-11.311,0-18.593,7.979-18.593,17.973c0,9.761,6.973,17.973,18.516,17.973c2.556,0,5.035-0.465,6.895-1.239v-8.444h-9.761
			v-10.226h21.691V827.911z"/>
		<path style="fill:#FFFFFF;" d="M497.435,775.619h34.629v10.769h-22.311v11h19.212v10.227h-19.212v13.324h23.163v10.769h-35.481
			V775.619z"/>
		<path style="fill:#FFFFFF;" d="M559.412,807.226c-2.789-3.951-5.578-8.057-8.211-12.008l-0.155,0.078
			c0.078,4.028,0.155,9.296,0.155,13.944v22.466h-11.853v-56.088H551.2l16.656,23.706l16.656-23.706h11.698v56.088h-12.317v-22.466
			c0-4.648,0.077-9.916,0.155-13.944l-0.155-0.078c-2.634,3.951-5.423,8.057-8.212,12.008l-8.134,11.543L559.412,807.226z"/>
		<path style="fill:#FFFFFF;" d="M604.89,775.619h34.628v10.769h-22.311v11h19.212v10.227h-19.212v13.324h23.164v10.769H604.89
			V775.619z"/>
		<path style="fill:#FFFFFF;" d="M669.191,809.086c-3.641-4.881-7.049-9.606-10.536-14.486l-0.155,0.077
			c0.077,5.346,0.155,10.769,0.155,16.191v20.839h-11.853v-56.088h11.62l16.811,22.621c3.641,4.881,7.05,9.606,10.536,14.486
			l0.155-0.077c-0.078-5.346-0.155-10.768-0.155-16.191v-20.839h11.853v56.088h-11.62L669.191,809.086z"/>
		<path style="fill:#FFFFFF;" d="M720.479,786.387h-18.128v-10.769h48.573v10.769h-18.127v45.319h-12.317V786.387z"/>
	</g>
</g>
</svg>
